<svg width="105" height="39" fill="none" xmlns="http://www.w3.org/2000/svg"><path d="M104.147 3.178c0 5.894-28.06 12.399-30.185 12.399-1.191 0-2.543-.278-2.543-1.39 0-.372.424-.909 1.167-1.556l-1.97-3.543a.915.915 0 01.449-1.292l.338-.137a2.224 2.224 0 011.889.101l3.575 1.917a85.41 85.41 0 014.636-2.574l-6.968-4.577A.917.917 0 0174.546.99l.57-.363a4.005 4.005 0 013.186-.492l11.592 3.096C93.508 1.779 96.776.788 98.71.788c.517 0 1.034.013 1.534.05l-3.501 1.6-.084 1.192 5.404-2.515c1.295.313 2.084.896 2.084 2.063zM90.044 13.352l4.324 4.973a.892.892 0 001.054.224l.58-.272a2.739 2.739 0 001.542-2.795l-.541-4.687a.45.45 0 00-.596-.376l-6.175 2.202a.458.458 0 00-.188.73zM18.668 4.885c-.571-.087-1.17-.296-1.799-.629v-.823h5.396v.823c-.243.16-.5.29-.77.39a6.1 6.1 0 01-.793.24l-3.79 13.723-2.227.26-3.319-10.493-3.233 10.232-2.248.26L1.71 4.886a4.71 4.71 0 01-.835-.238 5.842 5.842 0 01-.728-.39v-.824h6.937v.823c-.243.13-.52.253-.835.369-.3.101-.614.188-.942.26l1.991 7.653.45 2.819h.043l.75-2.927 2.847-8.997h1.263l3.04 8.888.729 2.819h.042l.493-2.862 1.713-7.393zM21.281 13.189c0-.882.129-1.67.386-2.364a5.137 5.137 0 011.135-1.799c.5-.491 1.099-.867 1.798-1.127.7-.26 1.492-.39 2.377-.39 1 0 1.856.144 2.57.433.727.275 1.32.665 1.776 1.17a4.39 4.39 0 011.028 1.8c.214.694.321 1.453.321 2.277 0 .881-.128 1.676-.385 2.384a4.79 4.79 0 01-1.135 1.778 4.791 4.791 0 01-1.798 1.127c-.7.26-1.492.39-2.377.39-.97 0-1.813-.137-2.527-.411-.713-.29-1.306-.68-1.777-1.17a4.809 4.809 0 01-1.05-1.8 7.447 7.447 0 01-.342-2.298zm3.32 0c0 .65.035 1.25.106 1.799.086.535.229.99.428 1.366.2.376.471.672.814.889.343.202.785.303 1.328.303.314 0 .6-.072.856-.217.257-.159.478-.404.664-.737.185-.347.321-.795.407-1.344.1-.563.15-1.25.15-2.06 0-.664-.043-1.264-.129-1.799-.071-.535-.207-.99-.407-1.366a2.063 2.063 0 00-.77-.867c-.329-.217-.743-.325-1.242-.325-.372 0-.693.08-.964.238-.271.145-.5.39-.685.737-.186.333-.329.781-.428 1.345-.086.549-.129 1.228-.129 2.038zM39.54 10.262a2.998 2.998 0 00-.6.433c-.228.203-.435.535-.62.998v5.55c.285.029.57.086.856.173.286.072.571.188.857.347v.845h-6.21v-.845c.257-.145.5-.253.728-.325.229-.072.457-.137.685-.195V9.308l-1.413-.174V8.29c.229-.101.507-.195.835-.282.343-.087.693-.159 1.05-.217.356-.072.699-.13 1.027-.173l.857-.109h.728v2.884h.085c.115-.318.279-.65.493-.997.228-.347.492-.665.792-.954.3-.29.628-.52.985-.694a2.313 2.313 0 011.114-.239c.157.203.292.492.406.868.114.361.207.708.279 1.04v.846H39.54zM49.126 18.608h-5.91v-.845a6.985 6.985 0 011.413-.52V4.105l-1.627-.174v-.845a4.77 4.77 0 01.77-.26 10.35 10.35 0 011.05-.217c.385-.072.763-.13 1.135-.174.385-.057.728-.1 1.027-.13h.728v14.938c.471.115.942.289 1.413.52v.845zM57.627 16.462c-.072.318-.2.622-.386.91a3.83 3.83 0 01-.663.781 3.15 3.15 0 01-.878.52c-.329.13-.678.196-1.05.196-1.413 0-2.49-.448-3.233-1.345-.728-.91-1.092-2.298-1.092-4.162 0-.954.129-1.785.386-2.493.257-.723.614-1.33 1.07-1.821a4.489 4.489 0 011.692-1.106c.656-.246 1.384-.369 2.184-.369.257 0 .47.008.642.022.186.015.35.036.493.065.157.015.3.05.428.109.143.043.3.094.47.151V4.105l-1.626-.174v-.845c.2-.087.47-.166.813-.239a22.23 22.23 0 011.114-.195 37.34 37.34 0 011.135-.195c.37-.058.678-.108.92-.152h.728V17.07l1.413.174v.759c-.2.1-.456.195-.77.281-.315.087-.643.166-.985.239-.343.072-.678.13-1.007.173-.314.058-.578.101-.792.13h-.728l-.193-2.363h-.085zm-1.949.672c.5 0 .92-.159 1.264-.477.342-.318.592-.86.749-1.626V9.2a2.496 2.496 0 00-.707-.281 4.077 4.077 0 00-1.028-.109c-.827 0-1.42.383-1.777 1.15-.357.75-.535 1.85-.535 3.295 0 1.17.157 2.11.471 2.818.314.708.835 1.062 1.563 1.062zM.81 33.32c0-.882.129-1.67.386-2.363a5.137 5.137 0 011.135-1.8c.5-.491 1.099-.867 1.798-1.127.7-.26 1.492-.39 2.377-.39 1 0 1.856.144 2.57.433.727.275 1.32.665 1.777 1.171a4.389 4.389 0 011.027 1.8c.214.693.322 1.452.322 2.276 0 .882-.129 1.676-.386 2.385a4.79 4.79 0 01-1.135 1.777 4.791 4.791 0 01-1.798 1.128c-.7.26-1.492.39-2.377.39-.97 0-1.813-.137-2.527-.412-.713-.289-1.306-.68-1.777-1.17a4.81 4.81 0 01-1.049-1.8A7.447 7.447 0 01.81 33.32zm3.32 0c0 .65.035 1.25.106 1.8.086.534.229.99.429 1.365.2.376.47.672.813.889.343.202.785.303 1.328.303.314 0 .6-.072.856-.216.257-.16.478-.405.664-.737.186-.347.321-.795.407-1.344.1-.564.15-1.25.15-2.06 0-.665-.043-1.265-.129-1.8-.071-.534-.207-.99-.407-1.365a2.063 2.063 0 00-.77-.868c-.329-.216-.743-.325-1.242-.325-.371 0-.693.08-.964.239-.271.144-.5.39-.685.737-.186.332-.328.78-.428 1.344-.086.55-.129 1.229-.129 2.038zM19.733 22.437c.585 0 1.106.057 1.563.173.471.101.828.202 1.07.303a8.098 8.098 0 01-.277 1.475c-.143.506-.272.925-.386 1.257h-.728l-.942-2.06a2.97 2.97 0 00-.942.13 1.091 1.091 0 00-.6.456c-.142.231-.25.564-.32.997-.072.42-.108.969-.108 1.648V27.9h2.27v1.366h-2.27v8.108c.742.087 1.428.26 2.056.52v.846h-6.552v-.846c.442-.26.913-.433 1.413-.52v-8.108h-1.628v-.846a5.886 5.886 0 011.628-.715v-.759c0-.896.121-1.633.364-2.211.257-.593.6-1.055 1.028-1.388a3.623 3.623 0 011.498-.715 8.568 8.568 0 011.863-.195zM26.77 28.42a5.598 5.598 0 011.712-.737v-1.756c.086-.087.228-.166.428-.238.214-.087.436-.16.664-.217a17.612 17.612 0 011.263-.325h.728V27.9h2.827v1.366h-2.827v5.615c0 .896.107 1.517.322 1.864.228.347.599.52 1.113.52.257 0 .542-.014.856-.043.329-.043.628-.115.9-.217l.15.716a2.65 2.65 0 01-.578.412 6.003 6.003 0 01-.857.412c-.314.13-.664.238-1.05.325-.37.087-.763.13-1.177.13-.928 0-1.62-.246-2.077-.737-.457-.491-.685-1.286-.685-2.385v-6.612h-1.713v-.846zM41.36 30.393a2.998 2.998 0 00-.6.434c-.228.202-.435.534-.621.997v5.55c.285.029.57.087.856.173.286.073.571.188.857.347v.846h-6.21v-.846c.257-.144.5-.253.728-.325.229-.072.457-.137.686-.195v-7.935l-1.414-.173v-.846c.229-.101.507-.195.835-.282a12.27 12.27 0 011.05-.216c.356-.073.7-.13 1.027-.174l.857-.108h.728v2.883h.086c.114-.318.278-.65.492-.997.228-.347.492-.665.792-.954.3-.29.628-.52.985-.694a2.315 2.315 0 011.114-.238c.157.202.292.491.407.867.114.361.206.708.278 1.04v.846h-2.934zM54.435 35.596v.824c.014.231.035.477.064.737l1.477.217v.759a4.216 4.216 0 01-.706.26c-.286.087-.593.173-.92.26-.315.072-.629.13-.943.174a13.49 13.49 0 01-.835.13h-.728a3.216 3.216 0 01-.257-.998c-.029-.332-.05-.737-.064-1.214h-.107c-.072.29-.193.571-.364.846-.172.26-.393.498-.664.715a3.305 3.305 0 01-.92.499c-.358.13-.757.195-1.2.195-.47 0-.906-.072-1.306-.217a3.29 3.29 0 01-1.05-.607 2.82 2.82 0 01-.706-.932 2.997 2.997 0 01-.257-1.258c0-.65.122-1.185.364-1.604.243-.419.621-.759 1.135-1.019.528-.274 1.2-.477 2.013-.607.828-.13 1.827-.224 2.998-.282.114-1.243.064-2.153-.15-2.731-.214-.578-.678-.867-1.392-.867-.443 0-.85.072-1.22.216l-1.007 2.602h-.942a7.004 7.004 0 01-.343-.585c-.1-.232-.2-.47-.3-.716-.085-.26-.163-.52-.235-.78-.057-.26-.1-.514-.128-.76.542-.375 1.242-.671 2.098-.888a11.045 11.045 0 012.72-.325c.813 0 1.477.094 1.99.282.514.173.914.419 1.2.737.3.303.506.665.62 1.084.115.419.172.867.172 1.344 0 .867-.022 1.655-.064 2.363-.029.694-.043 1.41-.043 2.146zm-4.818 1.67c.3 0 .557-.058.771-.174a1.97 1.97 0 00.535-.412c.157-.159.271-.332.343-.52.086-.188.15-.354.193-.499v-2.168c-.671.015-1.22.058-1.65.13-.427.073-.763.196-1.005.369a1.29 1.29 0 00-.514.629c-.086.245-.129.549-.129.91 0 .55.129.976.386 1.28.257.303.613.455 1.07.455zM61.493 39l-4.282-9.734a6.32 6.32 0 01-1.135-.52V27.9h5.631v.824c-.185.1-.378.202-.578.303a4.67 4.67 0 01-.642.239l1.99 5.55.408 1.452h.043l.342-1.474 1.82-5.528a4.193 4.193 0 01-.642-.217 3.933 3.933 0 01-.535-.304V27.9h4.132v.845a2.647 2.647 0 01-.535.282c-.2.087-.428.166-.686.239l-3.746 9.474-1.585.26zM77.925 36.919c-.114.245-.3.498-.557.759-.243.245-.55.47-.92.672-.358.188-.779.34-1.264.455-.471.13-.985.195-1.542.195-.885 0-1.67-.13-2.355-.39a4.67 4.67 0 01-1.713-1.15 5.222 5.222 0 01-1.05-1.799c-.228-.694-.342-1.474-.342-2.341 0-1.85.478-3.26 1.435-4.228.956-.968 2.284-1.452 3.983-1.452.728 0 1.406.1 2.034.303.642.203 1.17.535 1.584.997.428.463.721 1.07.878 1.822.171.751.164 1.669-.021 2.753H71.5c.014 1.142.3 2.052.857 2.732.57.679 1.406 1.019 2.505 1.019a5.23 5.23 0 001.456-.217c.514-.145.913-.333 1.199-.564l.407.434zm-4.411-8.043c-.286 0-.543.05-.771.151-.214.101-.407.29-.578.564-.157.26-.286.621-.386 1.084-.1.448-.17 1.019-.214 1.713h3.448c.1-1.128.035-1.995-.193-2.602-.228-.607-.664-.91-1.306-.91zM85.593 38.74h-5.91v-.846a6.986 6.986 0 011.413-.52V24.236l-1.627-.173v-.846c.185-.087.442-.173.77-.26.329-.087.679-.16 1.05-.217.385-.072.763-.13 1.135-.173.385-.058.727-.102 1.027-.13h.728v14.937c.471.116.942.29 1.413.52v.846z" fill="#FCF5ED"/></svg>